<?xml version="1.0" encoding="iso-8859-1"?>
<!-- Generator: Adobe Illustrator 19.0.0, SVG Export Plug-In . SVG Version: 6.00 Build 0)  -->
<svg version="1.1" id="Capa_1" xmlns="http://www.w3.org/2000/svg" xmlns:xlink="http://www.w3.org/1999/xlink" x="0px" y="0px"
	 viewBox="0 0 409.6 409.6" style="enable-background:new 0 0 409.6 409.6;" xml:space="preserve">
<path style="fill:#EA3457;" d="M329.458,204.8h73.315c0-109.338-88.636-197.973-197.973-197.973S6.827,95.462,6.827,204.8h239.113"
	/>
<path style="fill:#602F75;" d="M402.773,211.627h-73.317c-3.77,0-6.827-3.053-6.827-6.827s3.057-6.827,6.827-6.827h66.371
	C392.219,95.72,307.913,13.653,204.8,13.653S17.381,95.72,13.773,197.973h232.166c3.77,0,6.827,3.053,6.827,6.827
	s-3.057,6.827-6.827,6.827H6.827c-3.77,0-6.827-3.053-6.827-6.827C0,91.873,91.873,0,204.8,0s204.8,91.873,204.8,204.8
	C409.6,208.573,406.543,211.627,402.773,211.627z"/>
<path style="fill:#FFFFFF;" d="M329.458,204.8h73.315c0,109.338-88.636,197.973-197.973,197.973S6.827,314.138,6.827,204.8h230.32"
	/>
<path style="fill:#602F75;" d="M204.8,409.6C91.873,409.6,0,317.727,0,204.8c0-3.773,3.057-6.827,6.827-6.827h230.32
	c3.77,0,6.827,3.053,6.827,6.827s-3.057,6.827-6.827,6.827H13.773c3.608,102.253,87.914,184.32,191.027,184.32
	s187.419-82.067,191.027-184.32h-66.371c-3.77,0-6.827-3.053-6.827-6.827s3.057-6.827,6.827-6.827h73.317
	c3.77,0,6.827,3.053,6.827,6.827C409.6,317.727,317.727,409.6,204.8,409.6z"/>
<circle style="fill:#FFFFFF;" cx="204.8" cy="204.8" r="75.093"/>
<path style="fill:#602F75;" d="M204.8,286.72c-45.17,0-81.92-36.746-81.92-81.92s36.75-81.92,81.92-81.92s81.92,36.746,81.92,81.92
	S249.97,286.72,204.8,286.72z M204.8,136.533c-37.644,0-68.267,30.626-68.267,68.267s30.623,68.267,68.267,68.267
	s68.267-30.626,68.267-68.267S242.444,136.533,204.8,136.533z"/>
<circle style="fill:#00E7FF;" cx="204.8" cy="204.8" r="47.787"/>
<path style="fill:#FFFFFF;" d="M75.054,129.101c-1.171,0-2.357-0.3-3.441-0.934c-3.253-1.906-4.35-6.086-2.447-9.341
	c20.791-35.553,55.433-62,95.053-72.567c3.657-0.993,7.383,1.193,8.356,4.833c0.969,3.647-1.193,7.386-4.837,8.354
	C131.569,69.1,99.937,93.254,80.951,125.72C79.683,127.894,77.401,129.101,75.054,129.101z"/>
<g>
</g>
<g>
</g>
<g>
</g>
<g>
</g>
<g>
</g>
<g>
</g>
<g>
</g>
<g>
</g>
<g>
</g>
<g>
</g>
<g>
</g>
<g>
</g>
<g>
</g>
<g>
</g>
<g>
</g>
</svg>
