<svg id="Capa_1" data-name="Capa 1" xmlns="http://www.w3.org/2000/svg" viewBox="0 0 416.47 149.16"><defs><style>.cls-1{fill:#4a94cc;}.cls-2{fill:#f4bd25;}.cls-3{fill:#f2be3b;}.cls-4{fill:#edab1e;}</style></defs><path class="cls-1" d="M105,199.68a1.66,1.66,0,0,0-.9,2c7.35,25.19,7.3,24.6,8.33,25a1.65,1.65,0,0,0,1.48-.19c6.43-4.33,12.76-10.07,11-19.7C123.48,199.59,114.46,195.29,105,199.68Zm10.1,18.7h0c-3.31-10.81-1.37-4.25-4.45-14.57C120.36,202.06,122.48,211.76,115.05,218.38Z" transform="translate(-47.77 -137.94)"/><path class="cls-1" d="M273.21,194.42c-9-7.78-22.84-.83-22.26,10.85.26,5.43,4.78,11.7,6.89,9.29l15.54-17.78A1.68,1.68,0,0,0,273.21,194.42ZM256.8,208.85a8.71,8.71,0,0,1,10.71-12.35Z" transform="translate(-47.77 -137.94)"/><path class="cls-1" d="M387,218.19c-4.32,5.48-14.14,2.45-13.84-4.26.12-3.09,2.27-3.69,1-5.25a1.66,1.66,0,0,0-1.93-.5c-12.19,5-8.13,22.24,5.25,22.24,6.73,0,12.1-4.78,12.48-11.1A1.67,1.67,0,0,0,387,218.19Z" transform="translate(-47.77 -137.94)"/><path class="cls-1" d="M173.73,224c-4.15,5.64-14,3-14-3.69,0-3.1,2.12-3.79.79-5.29a1.66,1.66,0,0,0-2-.41c-11.73,5.44-7.45,22,5.6,22,6.91,0,12.43-5.09,12.56-11.58A1.66,1.66,0,0,0,173.73,224Z" transform="translate(-47.77 -137.94)"/><path class="cls-1" d="M463,189.85c-31.35-7.62-29.8-7.52-30.72-7s-.7.82-3.48,12.27c-2.85-14.08-2.53-14.17-3.94-14.48l-35.48-7.81a1.67,1.67,0,0,0-2,1.65c.24,19.26-.19,19.27,1.53,19.65l4.53,1L393,199a3,3,0,0,1-.3-.16c-10.1-5.26-22.83-3.56-32.24,3.27h0l-5.6-35.34a1.67,1.67,0,0,0-1.65-1.41H330.34a1.67,1.67,0,0,0-1.64,1.4l-.47,2.83c-27.05,0-26.93-.52-27.24,1.4l-2.86,17.49-2.24-2.77a34.52,34.52,0,0,0-26.54-12.69c22.9-12.31,21.89-11.49,22.14-12.52a1.68,1.68,0,0,0-.23-1.33L277.5,138.68a1.67,1.67,0,0,0-2.64-.16c-28.52,32.85-27.8,31.23-26.57,32.73l4.09,5a37.9,37.9,0,0,0-11.73,7.47l-23.18-20.57a1.67,1.67,0,0,0-1.41-.39,1.63,1.63,0,0,0-1.17.87l-7.68,14.71.29-13.63a1.67,1.67,0,0,0-2.17-1.62c-37.84,12.09-36.54,11.18-36.46,12.95,1,21.82-.88,20,7.53,17.82l1,10.55c-10.33-4.65-22.66-2.51-31.91,4.21,6.65-29.47-27.71-53.16-75.94-32.61-9.88,4.21-15.07,7.74-21,11.48a1.67,1.67,0,0,0-.54,2.26C65.22,218.83,64.17,217.05,65.3,219a1.67,1.67,0,0,0,2.15.65l5.81-2.8c33.25,74.19,31,70.71,33,70.07l26-8.32a1.66,1.66,0,0,0,1.1-2l-9.7-37.24a70.5,70.5,0,0,0,6.67-5.6c-3.37,27.71,29.51,42.6,51.72,20.91,1,10.23.52,12.77,2.91,12.41l24.16-3.56a1.67,1.67,0,0,0,1.43-1.65l0-23.06c59,29.16,55.19,27.65,56.31,27a1.66,1.66,0,0,0,.79-1.41V239.68a58.46,58.46,0,0,0,23.43-7.6c-2,12.35-3.07,14.56-.74,14.93,29.15,4.59,27.84,4.66,28.71,4a1.68,1.68,0,0,0,.67-1.1l1.43-9.42c8.89,16.43,7.24,16.39,13,5.38,1.75,15.17,1.39,15.48,3,15.77.22,0,31.44,5.56,31.67,5.56a1.66,1.66,0,0,0,1.68-1.67,1.77,1.77,0,0,0-.08-.52l-1.45-9.18A31.69,31.69,0,0,0,387,252.43l-1.21,10.89a1.67,1.67,0,0,0,1.42,1.83l21.63,3.05.15,8.32a1.65,1.65,0,0,0,1.17,1.56l21.51,6.76c2.24.69,0,5.33,32.53-92.85A1.67,1.67,0,0,0,463,189.85Zm-165.85,4.88-1.93,12-5.05-4.54Zm-22.06-47.26L283.51,159l-24.18,12-1.66-2.54ZM116,235.41c-1.4.9-1.45-1,8.63,37.65l-15.61,5c-32.61-72.82-31.35-71.88-33.59-70.76L69,210.41l-11.6-19.6c28.71-18.34,57.2-17.28,68.22-10l.1.06C148.84,193.92,138.44,221,116,235.41Zm65.16,9.77c-12.6,17.66-38.28,17-43.72-2.35-3.5-12.4,4.48-27.16,17.76-32.88C179.08,199.86,196.18,224.45,181.14,245.18Zm23.43-16.6c-1.1.68-.79-.77-.69,28.4l-14.65,2-1-12.24c7.17-12.27,6.71-27.41-3.12-37.09-2-23.9-1.61-23.48-2.64-24.21s-1.79-.14-6.05,1l-.29-6.31,23.54-7,1.16,19.56a1.67,1.67,0,0,0,3,.86L218.42,173l17,16.14c-23.72,25-22.7,23.46-22.43,24.69a1.68,1.68,0,0,0,1,1.19l20,7.9c4.65,8.8,14.06,15.51,26.5,16.74v16C202.07,226.44,205.71,227.88,204.57,228.58Zm26.45-14-7.88-3,7.34-7.14A35,35,0,0,0,231,214.58Zm7.32-.3c-7.09-30.23,34.53-45.24,51.93-23.87-22.24,23.67-21.82,22.59-21,24.05.69,1.27,2,.84,3.47.49a19.19,19.19,0,0,0,8-4l.17-.14a31.21,31.21,0,0,0,3.37-3.46l12.28,11.06C278.28,237.3,244,238.17,238.34,214.28Zm104.37,41.23c-4.47-29.61-3.9-29-5.66-29.2s-1.46.35-6.72,14l-8.66-18.67a1.66,1.66,0,0,0-3.15.44L315,244l-18.11-3.15,2.55-15.15c.68-.65,1.35-1.29,2-2,6.83-7,6.81-5.2.16-11.15l6.06-36.07H326c3.07,16.72,2.7,17.24,4.55,17.24a1.66,1.66,0,0,0,1.64-1.37l3.52-19.84h13.07l5.42,35.25c-15,17-9.15,39.59,7.11,46.12l.69,4.57Zm45.14-11.08c-21.71,15.45-45-5.21-32.25-27.46,11.84-20.19,39.45-19.11,43.9,0C402,227.21,396.57,238.22,387.85,244.43Zm40.78,32.05-13.39-4-.78-32.68a1.65,1.65,0,0,0-1.53-1.62,1.68,1.68,0,0,0-1.77,1.37l-3.83,21.64-14.61-2.33,1-11c15.08-12.74,16.71-33.88,4.29-45.23l1.1-11.53c.16-1.77-1.52-1.84-5.4-2.87l.37-6.91,25.18,5.06c7.43,35.26,6.71,34.23,8.55,34.26a1.69,1.69,0,0,0,1.64-1.28l6.95-28.82,19.15,4.23Z" transform="translate(-47.77 -137.94)"/><polygon class="cls-2" points="235.74 21.01 227.29 9.53 209.9 30.46 211.56 33 235.74 21.01"/><path class="cls-3" d="M280.7,211a19.82,19.82,0,0,1-9.71,4.36,1.67,1.67,0,0,1-1.5-2.78l20.78-22.12c-17.32-21.27-59-6.44-51.93,23.87,5.58,23.52,39.66,23.31,58.18,4.13l-12.28-11.06A30.26,30.26,0,0,1,280.7,211Zm-25.34,3.65c-9.06-8.18-3.32-23.45,9.05-23.45,4.58,0,11.07,3.23,9,5.63C257.45,215,257.18,216.31,255.36,214.6Z" transform="translate(-47.77 -137.94)"/><path class="cls-4" d="M257.91,182.08c-14.44,4.53-23.13,17-19.57,32.2,4.78,20.13,30.64,23,49.76,11C248.38,239.48,233.93,198.45,257.91,182.08Z" transform="translate(-47.77 -137.94)"/><path class="cls-3" d="M354.19,207.77l-5.43-35.25H335.7c-3.71,20.93-3.29,21.2-5.16,21.21a1.67,1.67,0,0,1-1.64-1.36L326,176.49H307.72l-6.06,36.07c6.73,6,6.6,4.19-.17,11.15-.66.68-1.33,1.32-2,2l-2.55,15.15L315,244,318.52,222a1.66,1.66,0,0,1,3.15-.44l8.66,18.67c5.26-13.6,5-14.14,6.72-14a1.69,1.69,0,0,1,1.47,1.41l4.19,27.79L362,258.46l-.69-4.57C345.23,247.43,339.08,225,354.19,207.77Z" transform="translate(-47.77 -137.94)"/><path class="cls-4" d="M306.59,242.51l11.86-66H307.72l-6.06,36.07c6.73,6,6.6,4.19-.16,11.15-.67.68-1.34,1.32-2,2l-2.55,15.15Z" transform="translate(-47.77 -137.94)"/><path class="cls-3" d="M427.86,220.67c-1.84,0-1.11,1-8.55-34.25l-25.18-5.06-.37,6.91c3.85,1,5.56,1.09,5.4,2.87l-1.11,11.53c12.51,11.42,10.71,32.57-4.29,45.23l-1,11,14.61,2.33,3.83-21.64a1.66,1.66,0,0,1,3.3.25l.78,32.68,13.39,4,27-81.67-19.15-4.23C429.08,221.12,429.68,220.72,427.86,220.67Z" transform="translate(-47.77 -137.94)"/><path class="cls-4" d="M394.13,181.36l-.37,6.91c3.85,1,5.56,1.09,5.4,2.87l-1.11,11.53c12.51,11.42,10.71,32.57-4.29,45.23l-1,11,14.61,2.33,5.29-76.12Z" transform="translate(-47.77 -137.94)"/><path class="cls-3" d="M399.5,217c-4.44-19.1-32.05-20.21-43.9,0-12.79,22.25,10.54,42.91,32.25,27.47C396.56,238.23,402,227.22,399.5,217ZM376.93,230.4c-13.07-.56-16.61-17.34-4.69-22.22a1.66,1.66,0,0,1,1.93.5c1.26,1.56-.89,2.16-1,5.25-.3,6.73,9.53,9.73,13.84,4.26a1.67,1.67,0,0,1,3,1.13C389.57,226,383.7,230.7,376.93,230.4Z" transform="translate(-47.77 -137.94)"/><path class="cls-3" d="M233.93,222.92c-21.52-8.51-20.72-7.9-21-9.09s-1.41.42,22.43-24.69l-17-16.14c-15.58,21.89-14.86,21.59-16.42,21.15s-1.1.1-2.36-21.07l-23.54,7,.3,6.31,4.66-1.21a1.67,1.67,0,0,1,2.08,1.47l1.94,23c9.93,9.78,10.2,25,3.13,37.1l1,12.24,14.65-2c-.1-29.2-.39-27.73.7-28.4a1.64,1.64,0,0,1,1.62-.08l54.23,27.13v-16C248,238.43,238.6,231.76,233.93,222.92Z" transform="translate(-47.77 -137.94)"/><path class="cls-4" d="M194.53,174.61l-18.43,5.48.3,6.31c4.25-1.1,5.08-1.64,6-1s.63.31,2.64,24.21c9.93,9.78,10.2,25,3.13,37.09l1,12.24,8.56-1.17Z" transform="translate(-47.77 -137.94)"/><path class="cls-3" d="M125.76,180.87l-.1-.06c-11-7.27-39.54-8.31-68.22,10L69,210.41c6.06-3,7.77-4.25,8.63-2.31l31.32,70,15.62-5c-10-38.38-10-36.74-8.63-37.65C138.48,220.94,148.8,193.9,125.76,180.87Zm-11.9,45.56a1.66,1.66,0,0,1-2.52-.88c-7.85-25.22-8.16-25.05-6.39-25.87a18.52,18.52,0,0,1,7.68-1.77c6.21,0,11.21,3.63,12.18,8.82C126.62,216.36,120.29,222.1,113.86,226.43Z" transform="translate(-47.77 -137.94)"/><path class="cls-4" d="M82,194.07l-7.43,3.64-7.31-12.34a95.88,95.88,0,0,0-9.8,5.44l11.6,19.6c5.84-2.85,7.72-4.33,8.63-2.31l31.32,70,11.2-3.58C82.88,191.1,84.58,192.77,82,194.07Z" transform="translate(-47.77 -137.94)"/><path class="cls-3" d="M155.18,210c-13.28,5.72-21.26,20.48-17.76,32.88,5.46,19.39,31.21,19.89,43.72,2.35C196.24,224.38,179,199.91,155.18,210Zm9,26.66c-13,0-17.32-16.55-5.59-22a1.66,1.66,0,0,1,2,.41c1.33,1.51-.8,2.18-.8,5.29,0,6.71,9.86,9.34,14,3.69a1.66,1.66,0,0,1,3,1C176.6,231.52,171.08,236.61,164.16,236.61Z" transform="translate(-47.77 -137.94)"/><path class="cls-4" d="M146.43,239.91c-3.32-11.77,3.69-25.65,15.77-31.93-16.68,2.38-29,20-24.78,34.85,3.79,13.45,18.64,19.19,32.71,11.91C158.63,256.37,149.26,250,146.43,239.91Z" transform="translate(-47.77 -137.94)"/><path class="cls-4" d="M384.19,246.65c-22.79,2.06-32.25-26.31-12.25-43.1A29.85,29.85,0,0,0,355.6,217C344.08,237,363.28,257.36,384.19,246.65Z" transform="translate(-47.77 -137.94)"/></svg>